<?xml version="1.0" standalone="no"?>
<!DOCTYPE svg PUBLIC "-//W3C//DTD SVG 20010904//EN"
 "http://www.w3.org/TR/2001/REC-SVG-20010904/DTD/svg10.dtd">
<svg version="1.0" xmlns="http://www.w3.org/2000/svg"
 width="700.000000pt" height="700.000000pt" viewBox="0 0 700.000000 700.000000"
 preserveAspectRatio="xMidYMid meet">
<metadata>
Created by potrace 1.14, written by Peter Selinger 2001-2017
</metadata>
<g transform="translate(0.000000,700.000000) scale(0.100000,-0.100000)"
fill="#000000" stroke="none">
<path d="M2616 6099 c-76 -10 -172 -24 -215 -33 -76 -15 -91 -18 -186 -32 -27
-5 -52 -9 -55 -9 -3 -1 -30 -5 -60 -9 -30 -5 -64 -10 -75 -12 -79 -15 -136
-26 -170 -34 -22 -6 -51 -12 -65 -14 -51 -9 -241 -66 -307 -93 -166 -66 -275
-147 -449 -334 -124 -133 -417 -525 -486 -649 -109 -198 -235 -469 -298 -645
-106 -292 -119 -355 -116 -585 2 -137 5 -172 20 -203 11 -23 25 -37 34 -35 16
3 24 23 72 175 50 159 118 242 209 258 120 20 167 -113 105 -295 -9 -25 -17
-52 -19 -60 -2 -8 -8 -35 -15 -60 -29 -104 -6 -314 42 -396 19 -32 147 -149
155 -141 1 2 -8 32 -20 68 -28 78 -28 77 3 116 40 51 290 207 305 191 2 -2 -9
-18 -25 -35 -55 -59 -123 -182 -136 -246 -2 -10 -6 -27 -9 -36 -8 -26 -9 -149
-1 -199 15 -91 62 -208 122 -304 13 -21 24 -40 24 -42 0 -3 -120 -5 -267 -5
-148 0 -286 0 -308 0 l-40 -1 1 -622 c1 -604 1 -625 21 -675 33 -84 68 -137
126 -189 68 -62 133 -97 227 -123 73 -20 102 -20 1213 -21 l1137 0 0 25 c0 14
2 25 4 25 2 0 32 -10 67 -22 l64 -23 1238 -3 c996 -2 1237 0 1238 10 1 7 1 19
0 26 -2 16 1 16 92 -12 77 -24 81 -25 469 -23 l392 2 0 808 c1 445 -3 811 -7
814 -5 3 -141 5 -303 5 -162 0 -294 2 -294 4 0 2 18 38 39 81 139 276 165 468
87 639 -14 30 -22 54 -18 54 11 -1 105 -92 128 -125 21 -30 25 -99 8 -126 -11
-18 18 1 84 56 33 28 70 67 81 87 26 45 35 111 20 156 -6 18 -12 63 -14 100
-4 78 -6 86 -40 197 -46 152 -46 242 2 289 34 34 65 41 115 27 84 -25 155
-124 197 -271 48 -168 68 -194 96 -126 39 93 37 343 -5 521 -53 227 -258 703
-414 960 -41 67 -204 297 -263 370 -302 375 -425 481 -662 575 -51 20 -241 77
-281 84 -14 2 -56 11 -95 19 -38 9 -83 18 -100 21 -99 17 -215 36 -250 41 -22
2 -52 7 -67 10 -16 3 -38 7 -50 9 -13 2 -43 9 -68 14 -25 6 -67 13 -95 16 -27
4 -66 9 -85 11 -19 3 -53 7 -75 9 -22 3 -66 8 -97 11 -49 6 -62 4 -93 -15 -24
-15 -56 -23 -101 -25 -124 -7 -221 -75 -277 -193 -26 -56 -32 -79 -32 -139 0
-42 -4 -73 -10 -73 -6 0 -26 5 -45 11 -79 24 -361 14 -406 -14 -8 -5 -13 19
-16 76 -6 94 -29 156 -84 223 -49 60 -144 106 -221 109 -37 1 -73 9 -101 24
-47 24 -51 24 -246 0z"/>
</g>
</svg>
